<svg width="16" height="16" viewBox="0 0 16 16" fill="none" xmlns="http://www.w3.org/2000/svg">
<path fill-rule="evenodd" clip-rule="evenodd" d="M13.2356 7.67353C13.3658 7.8037 13.3658 8.01476 13.2356 8.14493L12.7642 8.61633L8.99298 12.3876C8.8628 12.5177 8.65175 12.5177 8.52157 12.3876L8.05017 11.9162C7.91999 11.786 7.91999 11.5749 8.05017 11.4448L10.8717 8.62327L2.99992 8.62327C2.81582 8.62327 2.66658 8.47403 2.66658 8.28994L2.66658 7.62327C2.66658 7.43918 2.81582 7.28994 2.99992 7.28994L10.9664 7.28994L8.05017 4.37369C7.92 4.24352 7.92 4.03246 8.05017 3.90229L8.52158 3.43088C8.65175 3.30071 8.86281 3.30071 8.99298 3.43088L12.7638 7.20167L13.2356 7.67353Z" fill="#889292"/>
</svg>
